<svg width="75" height="23" viewBox="0 0 75 23" fill="none" xmlns="http://www.w3.org/2000/svg">
<path d="M29.1964 15.5907L26.7416 22.1906H23.4707L32.0604 0H35.9621L44.4878 22.1906H41.2169L38.7621 15.5907H29.1986H29.1964ZM37.8479 13.1062L33.9782 2.60803L30.1085 13.1062H37.8479Z" fill="#4F4F4F"/>
<path d="M45.7683 0H48.8622V22.1906H45.7683V0Z" fill="#4F4F4F"/>
<path d="M52.0625 0H56.6871L63.577 19.0145L70.3114 0H74.9999V22.1885H72.1059V3.23791L65.4034 22.1906H61.7528L54.9566 3.23791V22.1906H52.0625V0Z" fill="#4F4F4F"/>
<path d="M13.8655 9.71037V12.4845H22.1907V9.71037H13.8655Z" fill="#4F4F4F"/>
<path d="M0 9.71037L0 12.4845H8.32521V9.71037H0Z" fill="#4F4F4F"/>
<path d="M12.4836 13.8662H9.70923V22.1906H12.4836V13.8662Z" fill="#4F4F4F"/>
<path d="M12.4836 0H9.70923V8.32442H12.4836V0Z" fill="#4F4F4F"/>
</svg>
