<?xml version="1.0" encoding="UTF-8"?>
<svg id="Artwork" xmlns="http://www.w3.org/2000/svg" xmlns:xlink="http://www.w3.org/1999/xlink" viewBox="0 0 1122.69134 221.24278">
  <defs>
    <style>
      .cls-1 {
        fill: #2e3192;
      }

      .cls-2 {
        fill: #ee2d67;
      }
    </style>
    <symbol id="AlephKids_Signiture_H_01_Full_Color" data-name="AlephKids Signiture H 01 Full Color" viewBox="0 0 1122.69134 221.24278">
      <g>
        <g>
          <rect class="cls-2" y="132.74561" width="44.24829" height="44.24854"/>
          <polygon class="cls-2" points="132.74536 44.24854 132.74536 88.49706 44.24829 88.49706 44.24829 132.74559 132.74536 132.74559 132.74536 176.99411 44.24829 176.99411 44.24829 221.24264 176.9939 221.24264 176.9939 44.24854 132.74536 44.24854"/>
          <rect class="cls-2" x="44.24829" width="88.49707" height="44.24854"/>
        </g>
        <g>
          <path class="cls-1" d="M324.20419,82.50263c-7.04224-2.78943-15.89153-4.18701-26.54995-4.18701-3.42607,0-7.07358.0329-10.94253.09505-3.87209.06528-7.64598.22301-11.32483.47578-3.68094.25591-6.97853.50869-9.89591.76146v22.45695c3.55141-.25278,7.58018-.47578,12.08525-.66589,4.50194-.19011,8.97463-.34783,13.41703-.47578,4.44031-.12482,8.24659-.19063,11.41884-.19063,6.09067,0,10.59261,1.46026,13.51313,4.37764,2.91634,2.91999,4.3766,7.35978,4.3766,13.32198v.95157h-21.12464c-9.13549,0-17.09901,1.20748-23.8843,3.61617-6.78947,2.41131-12.056,6.02748-15.79752,10.84748-3.74361,4.82366-5.61332,11.03863-5.61332,18.65119,0,6.97957,1.55218,12.94177,4.6628,17.88972,3.10644,4.94795,7.48513,8.75423,13.13187,11.41884,5.64361,2.6646,12.20955,3.99638,19.69781,3.99638,7.2313,0,13.35123-1.30201,18.36499-3.90133,4.32489-2.24314,7.84392-5.36838,10.56232-9.36268v10.59993h25.31218v-64.13644c0-9.64052-1.80809-17.44371-5.42426-23.40852-3.61617-5.9622-8.94538-10.33984-15.98554-13.13187ZM320.30181,144.92603c-.25487,5.5846-1.42683,9.99148-3.52008,13.22693-2.09429,3.23544-4.69622,5.51931-7.80371,6.85109-3.10958,1.3323-6.50327,1.99871-10.18107,1.99871-6.09067,0-10.75347-1.45712-13.98839-4.37712-3.23596-2.91738-4.8529-6.72366-4.8529-11.41936,0-4.69257,1.61694-8.53123,4.8529-11.51389,3.23492-2.97953,7.89772-4.47217,13.98839-4.47217h21.50485v9.7058ZM745.56166,88.78288c-6.09067-8.11811-15.03501-12.1803-26.83511-12.1803h-1.14168c-8.12125,0-14.81462,1.90314-20.07802,5.70942-4.91218,3.55037-8.67616,8.61061-11.32379,15.14156v-53.20488h-26.45385v138.93078h26.45385v-59.75932c0-6.85109,1.99819-12.40018,5.99562-16.65247,3.99638-4.24968,9.2295-6.37531,15.70038-6.37531,6.09067,0,11.00625,1.90314,14.74986,5.70942,3.74047,3.80628,5.61332,9.01015,5.61332,15.60585v61.47184h26.45385v-58.99786c0-15.4779-3.04377-27.27747-9.13444-35.39872ZM491.39743,83.54925c-7.55093-4.88319-16.90786-7.3274-28.07184-7.3274-8.50146,0-15.98554,1.49264-22.45747,4.47269-6.46984,2.98214-11.8941,6.97905-16.27174,11.98968-4.3766,5.01376-7.67732,10.72318-9.89591,17.12878-2.22172,6.40821-3.33102,13.0363-3.33102,19.88792v3.61617c0,6.59832,1.10929,13.0692,3.33102,19.41161,2.21859,6.34606,5.51931,12.08525,9.89591,17.22383,4.37764,5.13858,9.89591,9.23002,16.55794,12.27536,6.66099,3.04534,14.43127,4.56722,23.31399,4.56722,8.49832,0,16.08164-1.45974,22.74158-4.3766,6.66203-2.91738,12.14792-7.04224,16.46289-12.37093,4.31183-5.32869,7.2313-11.54366,8.75423-18.65067h-24.36061c-1.14168,3.80628-3.74361,7.01195-7.80266,9.61075-4.06115,2.60193-9.32559,3.90133-15.79543,3.90133-6.47193,0-11.80009-1.42735-15.98763-4.28206-4.18649-2.85471-7.29711-6.78581-9.32559-11.79957-1.34693-3.32371-2.23608-6.97644-2.68889-10.94305h77.67386v-9.5157c0-9.13497-1.90314-17.66672-5.70942-25.59786-3.80628-7.92749-9.48645-14.3357-17.03321-19.2215ZM436.92998,121.70762c.52305-2.93148,1.29444-5.62951,2.32121-8.08834,2.09324-5.01063,5.16835-8.84981,9.2295-11.51441,4.05906-2.66408,9.00806-3.99638,14.84491-3.99638,5.83476,0,10.68767,1.26963,14.55871,3.80628,3.86895,2.53926,6.75709,6.15544,8.66023,10.848,1.0824,2.67035,1.84595,5.65928,2.3126,8.94486h-51.92715ZM353.32474,44.24868v19.79286h12.94177v119.13792h26.45385V44.24868h-39.39562ZM628.04434,91.82822c-4.25334-4.82052-9.32559-8.56465-15.22616-11.22873-5.89952-2.6646-12.53127-3.99691-19.88792-3.99691-7.99381,0-15.22512,1.74594-21.696,5.23363-5.3266,2.87403-9.75803,6.99158-13.32198,12.31296v-14.31115h-26.45385v141.40476h26.45385v-51.81199c3.68224,5.4227,8.27793,9.5345,13.79829,12.32132,6.40508,3.23544,13.47866,4.8529,21.2197,4.8529,7.35665,0,14.01868-1.36468,19.98297-4.09144,5.9622-2.72728,11.06788-6.53356,15.32122-11.41884,4.24916-4.88319,7.48408-10.52994,9.7058-16.93815,2.21859-6.4056,3.32997-13.35227,3.32997-20.83949v-3.99691c0-7.35717-1.14168-14.24117-3.42607-20.64938-2.28335-6.4056-5.55065-12.01945-9.79981-16.84258ZM611.20019,148.44716c-2.41078,5.01324-5.7418,8.91509-9.99096,11.704-4.2523,2.79204-9.23054,4.18701-14.93996,4.18701-4.94795,0-9.64313-1.1422-14.08344-3.42555-4.4424-2.28387-8.05858-5.51931-10.84748-9.70633-2.79308-4.18701-4.18753-9.25979-4.18753-15.22512v-7.61256c0-6.21497,1.36207-11.54366,4.09144-15.98658,2.72728-4.43979,6.28078-7.80319,10.65842-10.08654,4.3766-2.28387,9.16474-3.42607,14.3686-3.42607,5.70942,0,10.68767,1.36521,14.93996,4.09196,4.24916,2.72989,7.58018,6.50379,9.99096,11.32379,2.40869,4.82313,3.61617,10.53255,3.61617,17.12826,0,6.34606-1.20748,12.0231-3.61617,17.03373Z"/>
          <g>
            <polygon class="cls-2" points="850.30759 94.946 833.45664 94.946 833.45664 111.98074 816.62482 111.98074 816.62482 128.81256 803.46258 128.81256 803.46258 44.24868 782.96118 44.24868 782.96118 183.17946 803.46258 183.17946 803.46258 149.31343 833.45664 149.31343 833.45664 166.34764 850.47014 166.34764 850.26828 183.17946 870.7888 183.17946 870.7888 162.88151 854.14078 162.88151 853.93892 145.64438 836.9233 145.64438 836.9233 115.4474 853.95804 115.4474 853.95804 98.61558 870.7888 98.61558 870.7888 78.11471 850.50945 78.11471 850.30759 94.946"/>
            <polygon class="cls-2" points="885.81239 98.61558 902.64421 98.61558 902.64421 183.17946 923.14455 183.17946 923.14455 78.11471 885.81239 78.11471 885.81239 98.61558"/>
            <rect class="cls-2" x="902.64421" y="44.24868" width="20.50034" height="20.50087"/>
            <path class="cls-2" d="M1010.93392,78.11471h-50.69732v16.83129h-16.83182v71.40164h16.83182v16.83182h71.19978V44.24868h-20.50246v33.86603ZM963.90618,162.88151v-64.26594h47.02774v64.26594h-47.02774Z"/>
            <polygon class="cls-2" points="1122.69134 115.4474 1122.69134 94.946 1105.86058 94.946 1105.86058 78.11471 1068.52737 78.11471 1068.52737 94.946 1051.69661 94.946 1051.69661 115.4474 1068.52737 115.4474 1068.52737 132.88745 1085.35919 132.88745 1085.35919 149.71874 1102.39393 149.71874 1102.39393 162.88151 1072.19694 162.88151 1072.19694 146.04969 1051.69661 146.04969 1051.69661 166.34764 1068.52737 166.34764 1068.52737 183.17946 1105.86058 183.17946 1105.86058 166.34764 1122.69134 166.34764 1122.69134 146.04969 1105.86058 146.04969 1105.86058 129.2184 1089.02876 129.2184 1089.02876 111.98074 1072.19694 111.98074 1072.19694 98.61558 1102.39393 98.61558 1102.39393 115.4474 1122.69134 115.4474"/>
          </g>
        </g>
      </g>
    </symbol>
  </defs>
  <use width="1122.69134" height="221.24278" xlink:href="#AlephKids_Signiture_H_01_Full_Color"/>
</svg>