<svg width="534" height="121" viewBox="0 0 534 121" fill="none" xmlns="http://www.w3.org/2000/svg">
<path d="M97.1656 0.043049C109.746 0.0432092 119.944 10.2651 119.944 22.8747V97.4347C119.944 110.044 109.746 120.267 97.1656 120.267H22.7788C10.1983 120.267 0 110.045 0 97.4347V22.8747C0.000170785 10.265 10.1984 0.0430825 22.7788 0.043049H97.1656ZM19.645 91.9351C17.9658 91.9351 16.6045 93.2997 16.6042 94.9828V101.382C16.6042 103.066 17.9656 104.431 19.645 104.431H100.589C102.268 104.431 103.63 103.066 103.63 101.382V94.9828C103.63 93.2998 102.268 91.9352 100.589 91.9351H19.645ZM82.9027 61.4584C82.6431 61.4584 82.4266 61.6425 82.3831 61.9026C81.1387 70.146 80.4028 70.8842 72.1786 72.1316C71.9189 72.175 71.7344 72.3918 71.7344 72.6521C71.7344 72.9124 71.9189 73.1292 72.1786 73.1726C80.446 74.42 81.3656 75.1576 82.6209 83.5093C82.6533 83.7044 82.8157 83.8456 83.0103 83.8458C83.2051 83.8458 83.3682 83.7045 83.4007 83.5093C84.6559 75.1576 85.3593 74.42 93.6268 73.1726C93.8864 73.1291 94.0699 72.9123 94.07 72.6521C94.07 72.3919 93.8864 72.1751 93.6268 72.1316C85.4025 70.8842 84.6667 70.146 83.4222 61.9026C83.3788 61.6425 83.1622 61.4584 82.9027 61.4584ZM43.3533 22.5685C42.7042 22.5687 42.1524 23.046 42.055 23.6858C38.9276 44.4245 37.0883 46.2798 16.387 49.4144C15.7485 49.5121 15.2726 50.0649 15.2726 50.7157C15.2726 51.3665 15.7486 51.9193 16.387 52.0169C37.1964 55.1625 39.4909 57.0175 42.6616 78.0274C42.7373 78.5155 43.1481 78.8736 43.6351 78.8737C44.1221 78.8737 44.5338 78.5046 44.6096 78.0274C47.7586 57.0177 49.5329 55.1624 70.3206 52.0169C70.9591 51.9193 71.435 51.3665 71.435 50.7157C71.435 50.0649 70.9591 49.5121 70.3206 49.4144C49.6302 46.2798 47.78 44.4245 44.6526 23.6858C44.5552 23.0458 44.0026 22.5685 43.3533 22.5685ZM82.9438 15.8743C82.5325 15.8743 82.1966 16.1784 82.1317 16.5798C80.1839 29.541 79.0261 30.7013 66.095 32.6537C65.6837 32.7188 65.3915 33.0664 65.3915 33.4677C65.3916 33.8798 65.6946 34.2157 66.095 34.2807C79.0913 36.244 80.53 37.4054 82.5103 50.5298C82.5538 50.8333 82.8141 51.0611 83.1169 51.0611C83.4197 51.061 83.6791 50.8332 83.7226 50.5298C85.6921 37.4054 86.8069 36.244 99.7926 34.2807C100.204 34.2157 100.496 33.869 100.496 33.4677C100.496 33.0555 100.193 32.7188 99.7926 32.6537C86.8612 30.7013 85.7027 29.5411 83.7548 16.5798C83.6899 16.1676 83.3441 15.8744 82.9438 15.8743Z" fill="black"/>
<path d="M241.398 52.3868C247.85 52.3868 252.806 54.3717 256.254 58.3416C259.702 62.3115 261.426 66.3789 261.426 73.2774V77.3991H232.387C232.105 80.024 232.615 83.7119 235.705 86.0765C237.798 87.6709 240.336 88.4519 244.413 88.4519C248.49 88.4519 251.136 87.4865 253.63 85.9571L259.138 90.1331C258.011 92.1831 252.437 96.9123 244.174 96.9123C236.833 96.9123 231.227 94.8731 227.378 90.7947C223.517 86.7164 221.587 81.3365 221.587 74.6549C221.587 70.2078 222.509 66.2922 224.363 62.908C226.217 59.5347 228.646 56.9424 231.65 55.1201C234.654 53.2979 237.896 52.3976 241.387 52.3976L241.398 52.3868ZM232.615 69.9366H251.147C251.147 69.9366 250.713 60.9122 241.875 60.9122C233.038 60.9122 232.604 69.9366 232.604 69.9366H232.615Z" fill="black"/>
<path d="M279.459 56.1703C284.501 53.719 287.765 52.5042 292.59 52.5042C297.112 52.5042 300.506 53.5021 302.772 55.5087C305.039 57.5153 306.481 59.8474 307.11 62.5156C307.739 65.1839 308.053 68.1884 308.053 71.5292V95.7931H297.481V70.1951C297.481 67.9715 297.6 65.8672 296.494 64.0884C295.377 62.3095 292.677 61.0296 290.042 61.1706C287.407 61.3116 284.187 61.3984 279.459 65.4225V95.7823H268.886V53.0465H279.459V56.1595V56.1703Z" fill="black"/>
<path d="M366.458 55.836C369.364 53.6884 372.725 52.3868 377.03 52.3868C380.142 52.3868 383.265 53.0918 386.377 54.5019C389.489 55.9119 392.103 58.2657 394.217 61.563C396.332 64.8604 397.383 69.1882 397.383 74.5248C397.383 81.4232 395.475 86.8574 391.658 90.8273C387.841 94.7972 382.484 96.7821 375.577 96.7821C373.875 96.7821 372.335 96.5977 370.958 96.2289C369.581 95.8601 368.041 95.3069 366.338 94.5585V118.703H355.658V53.0484H366.447V55.8252L366.458 55.836ZM374.135 60.8472C371.391 60.8472 368.832 61.3678 366.458 62.4091V86.3368C368.605 87.7468 371.055 88.4519 373.799 88.4519C377.583 88.4519 380.641 87.3997 382.972 85.2846C385.315 83.1696 386.475 79.7746 386.475 75.0996C386.475 65.6088 382.354 60.858 374.124 60.858L374.135 60.8472Z" fill="black"/>
<path d="M422.762 52.3772C429.951 52.3772 434.982 53.8631 437.834 56.8243C440.686 59.7963 442.117 64.0265 442.117 69.5149V95.7746H431.328L431.436 92.77C429.452 94.4079 424.703 96.5338 419.736 96.5338C415.139 96.5338 411.701 95.3516 408.958 92.9761C406.214 90.6007 404.837 86.9888 404.837 83.2792C404.837 79.125 406.377 75.8818 409.457 73.539C412.536 71.2069 416.928 70.6971 422.642 70.3934L430.992 69.9487C430.992 66.2392 430.319 63.7119 428.986 62.3778C427.652 61.0436 425.017 60.3711 421.081 60.3711C417.741 60.3711 412.644 61.5751 408.719 63.0611L408.513 55.2515C414.304 53.3208 419.042 52.3555 422.751 52.3555L422.762 52.3772ZM431.328 77.1943L423.878 77.7475C418.316 78.0403 415.529 79.8951 415.529 83.3118C415.529 85.0147 416.158 86.3597 417.416 87.3142C418.674 88.2687 420.419 88.7568 422.642 88.7568C424.128 88.7568 425.386 88.6483 426.427 88.4206C427.468 88.1928 428.465 87.8457 429.43 87.3684C430.395 86.8912 430.948 86.5332 431.317 86.3163V77.1943H431.328Z" fill="black"/>
<path d="M477.944 64.8502C475.634 63.2124 472.348 62.1168 468.792 62.1168C466.341 62.1168 462.427 62.8761 460.345 64.3296V95.7957H449.555V53.0599H460.345V56.1729C463.695 54.3615 466.113 53.5697 469.291 53.4287C472.468 53.2877 475.319 53.6782 478.052 54.8387L477.944 64.8502Z" fill="black"/>
<path d="M496.289 95.797H485.499V33.2769H496.289V95.797ZM526.325 52.4972L509.854 72.3031L527.095 95.7861H514.191L497.276 72.3031L513.411 52.4972H526.314H526.325Z" fill="black"/>
<path d="M332.795 97.2475C331.016 97.2475 329.075 97.0957 326.961 96.651C320.487 95.306 316.291 92.5835 316.042 92.3665V82.1816C316.042 82.1816 322.233 86.3684 328.696 87.6157C334.953 88.8197 338.292 87.3554 338.835 85.3705C339.225 83.9387 339.062 81.6718 336.384 80.8583C335.256 80.522 333.912 80.0882 332.459 79.6868C326.516 78.0598 317.549 75.6085 315.76 66.7685C314.686 61.4536 317.332 56.334 322.049 54.002C330.583 49.7935 343.183 54.0237 345.926 56.2798V64.9137C339.648 61.1391 328.587 58.4925 325.757 61.5621C324.998 62.3864 324.521 63.6989 324.771 64.9462C325.389 68.005 329.173 69.2524 334.888 70.8143C336.514 71.259 338 71.823 339.496 72.2026C347.195 74.1659 349.364 81.8128 347.694 87.8001C346.393 92.4859 341.762 97.2367 332.784 97.2367L332.795 97.2475Z" fill="black"/>
<path d="M214.143 95.797H193.866C175.204 95.797 160.424 81.7723 160.424 64.5369C160.424 47.3016 175.605 33.2769 194.267 33.2769H214.143V43.668H194.267C181.341 43.668 170.823 53.0286 170.823 64.5369C170.823 76.0452 180.94 85.4059 193.877 85.4059H203.365V72.2489H193.486V61.8578H214.154V95.8078L214.143 95.797Z" fill="black"/>
</svg>
