<svg xmlns="http://www.w3.org/2000/svg" viewBox="0 0 400.42 182.40" preserveAspectRatio="xMidYMid meet">
  <g fill="#2D1810" transform="translate(22.4 138.11) scale(0.064882400648824 -0.064882400648824)">
    <path d="M313 1461V51Q313 39 319.0 32.0Q325 25 337 22L400 13Q410 12 410 6Q410 0 402 0H43Q41 0 39.0 1.5Q37 3 37 6Q37 8 40.0 10.5Q43 13 50 14L112 22Q125 25 130.5 32.0Q136 39 136 50V1377Q136 1382 133.5 1385.0Q131 1388 124 1388H46Q43 1388 41.0 1390.0Q39 1392 39 1394Q39 1397 41.0 1398.5Q43 1400 47 1401L287 1468Q295 1471 298.0 1471.5Q301 1472 304 1472Q309 1472 311.0 1468.5Q313 1465 313 1461ZM299 690 291 699 325 730Q420 816 487.5 852.0Q555 888 618 888Q710 888 761.5 827.5Q813 767 831 641L909 59Q911 43 918.5 32.5Q926 22 943 20L996 12Q1001 11 1003.0 9.5Q1005 8 1005 6Q1005 3 1003.0 1.5Q1001 0 997 0H632Q623 0 623 6Q623 10 634 13L699 22Q717 25 723.5 35.5Q730 46 728 59L656 623Q642 720 608.5 765.0Q575 810 510 810Q467 810 424.5 788.0Q382 766 332 720Z" transform="translate(0 0)"/>
    <path d="M566 92V99L558 92V694Q558 783 523.0 830.5Q488 878 418 878Q340 878 304.0 841.0Q268 804 268 764V695Q268 654 240.5 627.5Q213 601 172 601Q141 601 120.5 621.5Q100 642 100 682Q100 732 138.5 780.0Q177 828 252.5 859.0Q328 890 438 890Q589 890 662.5 823.5Q736 757 736 639V108Q736 67 749.5 49.5Q763 32 783 32Q801 32 815.5 43.0Q830 54 832 76Q833 80 834.5 81.0Q836 82 837 82Q840 82 840.5 81.0Q841 80 841 76Q841 60 827.0 38.0Q813 16 782.0 -0.5Q751 -17 700 -17Q632 -17 599.0 13.0Q566 43 566 92ZM52 192Q52 294 137.0 359.0Q222 424 396 424Q467 424 513.0 411.0Q559 398 598 379L592 372Q553 390 510.5 401.0Q468 412 416 412Q326 412 279.0 360.0Q232 308 232 219Q232 132 276.5 83.0Q321 34 394 34Q444 34 493.0 56.0Q542 78 575 120L584 114Q540 50 464.0 16.0Q388 -18 300 -18Q189 -18 120.5 40.5Q52 99 52 192Z" transform="translate(994 0)"/>
    <path d="M304 479Q304 614 341.5 705.0Q379 796 437.5 842.0Q496 888 558 888Q629 888 667.5 845.5Q706 803 706 729Q706 672 679.5 643.0Q653 614 613 614Q575 614 555.5 635.5Q536 657 534 701V729Q533 764 519.0 781.0Q505 798 472 798Q433 798 397.0 762.0Q361 726 337.5 654.0Q314 582 314 475ZM314 869V525V55Q314 44 320.5 36.5Q327 29 339 26L438 12Q443 11 445.0 10.0Q447 9 447 6Q447 3 445.0 1.5Q443 0 438 0H47Q43 0 40.5 2.0Q38 4 38 6Q38 9 41.0 11.0Q44 13 50 14L113 22Q126 25 131.5 31.5Q137 38 137 47V792Q137 797 134.5 800.5Q132 804 126 804H46Q43 804 41.0 806.0Q39 808 39 810Q39 813 41.0 815.0Q43 817 48 818L288 877Q295 879 298.5 879.5Q302 880 305 880Q310 880 312.0 876.5Q314 873 314 869Z" transform="translate(1858 0)"/>
    <path d="M303 883V739V732V-418Q303 -430 309.0 -437.0Q315 -444 327 -447L402 -456Q408 -457 410.0 -458.5Q412 -460 412 -463Q412 -466 410.0 -467.5Q408 -469 404 -469H45Q43 -469 41.0 -467.5Q39 -466 39 -463Q39 -461 42.0 -458.5Q45 -456 52 -455L102 -447Q115 -444 120.5 -437.0Q126 -430 126 -419V798Q126 803 123.5 806.0Q121 809 114 809H36Q33 809 31.0 811.0Q29 813 29 815Q29 819 31.0 820.5Q33 822 37 823L277 890Q285 892 288.0 892.5Q291 893 294 893Q299 893 301.0 890.0Q303 887 303 883ZM289 708 281 718Q352 804 427.0 847.0Q502 890 595 890Q697 890 778.0 836.5Q859 783 905.5 686.0Q952 589 952 458Q952 309 898.5 201.0Q845 93 754.0 36.0Q663 -21 551 -21Q452 -21 385.0 19.0Q318 59 273 145L286 151Q321 82 376.5 44.5Q432 7 499 7Q576 7 638.0 49.0Q700 91 735.5 184.5Q771 278 771 430Q771 577 739.0 670.0Q707 763 651.0 807.5Q595 852 525 852Q474 852 412.0 817.5Q350 783 289 708Z" transform="translate(2579 0)"/>
    <path d="M795 527Q795 520 790.0 515.0Q785 510 776 510H159V525H602Q617 525 617 542Q617 708 564.0 792.0Q511 876 430 876Q359 876 309.0 832.5Q259 789 232.0 705.0Q205 621 205 501Q205 295 293.5 188.0Q382 81 522 81Q622 81 693.5 139.0Q765 197 779 297Q779 301 780.5 302.5Q782 304 783 304Q786 304 788.0 302.5Q790 301 789 295Q781 205 732.5 133.5Q684 62 606.5 21.0Q529 -20 433 -20Q316 -20 227.5 33.0Q139 86 90.0 184.0Q41 282 41 414Q41 552 92.0 659.5Q143 767 235.0 828.5Q327 890 451 890Q556 890 633.0 843.0Q710 796 752.5 714.0Q795 632 795 527Z" transform="translate(3581 0)"/>
    <path d="M304 479Q304 614 341.5 705.0Q379 796 437.5 842.0Q496 888 558 888Q629 888 667.5 845.5Q706 803 706 729Q706 672 679.5 643.0Q653 614 613 614Q575 614 555.5 635.5Q536 657 534 701V729Q533 764 519.0 781.0Q505 798 472 798Q433 798 397.0 762.0Q361 726 337.5 654.0Q314 582 314 475ZM314 869V525V55Q314 44 320.5 36.5Q327 29 339 26L438 12Q443 11 445.0 10.0Q447 9 447 6Q447 3 445.0 1.5Q443 0 438 0H47Q43 0 40.5 2.0Q38 4 38 6Q38 9 41.0 11.0Q44 13 50 14L113 22Q126 25 131.5 31.5Q137 38 137 47V792Q137 797 134.5 800.5Q132 804 126 804H46Q43 804 41.0 806.0Q39 808 39 810Q39 813 41.0 815.0Q43 817 48 818L288 877Q295 879 298.5 879.5Q302 880 305 880Q310 880 312.0 876.5Q314 873 314 869Z" transform="translate(4414 0)"/>
  </g>
  <g fill="#B5835A" transform="translate(355.57 138.11) scale(0.064882400648824 -0.064882400648824)">
    <path d="M172 -16Q141 -16 116.0 0.0Q91 16 76.5 43.5Q62 71 62 104Q62 136 76.5 163.5Q91 191 116.5 207.0Q142 223 172 223Q204 223 229.5 206.5Q255 190 269.5 163.0Q284 136 284 104Q284 71 269.0 43.5Q254 16 229.0 0.0Q204 -16 172 -16Z" transform="translate(0 0)"/>
  </g>
</svg>
